<svg width="35" height="34" viewBox="0 0 35 34" fill="none" xmlns="http://www.w3.org/2000/svg">
    <path
        d="M26.344 14.9366C25.8648 15.4196 25.498 16.0025 25.2694 16.6437C25.0408 17.285 24.9562 17.9689 25.0216 18.6467L24.9988 18.6239C25.0661 19.4217 24.9586 20.2246 24.6841 20.9766C24.4097 21.7285 23.9747 22.4113 23.4097 22.9775C22.8446 23.5436 22.163 23.9795 21.4124 24.2543C20.6619 24.5293 19.8605 24.637 19.0643 24.5696L19.087 24.5924C18.1345 24.5036 17.1778 24.7112 16.3473 25.1871C15.5169 25.663 14.8532 26.3838 14.4467 27.2515C14.0402 28.1192 13.9106 29.0912 14.0758 30.0354C14.241 30.9794 14.6927 31.8495 15.3695 32.5269C16.0463 33.2043 16.9151 33.6562 17.8575 33.8207C18.8 33.9854 19.7701 33.8546 20.6358 33.4466C21.5014 33.0385 22.2203 32.373 22.6945 31.5406C23.1688 30.7081 23.3752 29.7495 23.2857 28.7952L23.3097 28.818C23.2425 28.0203 23.3498 27.2173 23.6243 26.4653C23.8988 25.7134 24.3338 25.0305 24.8988 24.4643C25.4639 23.8983 26.1455 23.4624 26.896 23.1875C27.6466 22.9125 28.4479 22.8049 29.2443 22.8723L29.2203 22.8495C29.9983 22.9195 30.7815 22.7917 31.4972 22.4778C32.2128 22.1639 32.8379 21.6741 33.3143 21.0538C33.7907 20.4335 34.1032 19.7027 34.2225 18.9293C34.342 18.1557 34.2646 17.3645 33.9976 16.6289C33.7306 15.8933 33.2825 15.2372 32.695 14.7213C32.1075 14.2054 31.3995 13.8464 30.6366 13.6777C29.8738 13.5089 29.0807 13.5358 28.331 13.7558C27.5812 13.976 26.8992 14.3821 26.3478 14.9366H26.344Z"
        fill="#3649F9" />
    <path
        d="M17.0174 21.6056L16.9933 21.5828C17.6701 21.6511 18.3536 21.5679 18.9944 21.3391C19.6352 21.1103 20.2173 20.7419 20.6985 20.2602C21.1795 19.7784 21.5479 19.1955 21.7766 18.5537C22.0055 17.9119 22.089 17.2273 22.0214 16.5491L22.0454 16.5719C21.9782 15.774 22.0856 14.9712 22.36 14.2192C22.6345 13.4673 23.0695 12.7844 23.6345 12.2182C24.1996 11.6521 24.8812 11.2163 25.6317 10.9414C26.3823 10.6664 27.1836 10.5588 27.98 10.6261L27.956 10.6033C28.9086 10.693 29.8655 10.486 30.6964 10.0107C31.5274 9.53534 32.1917 8.81477 32.5988 7.94727C33.0059 7.07978 33.136 6.10758 32.9714 5.16326C32.8068 4.21895 32.3554 3.34852 31.6788 2.67068C31.0023 1.99285 30.1334 1.5406 29.1909 1.37565C28.2484 1.21069 27.278 1.34105 26.4121 1.74894C25.5462 2.15682 24.8271 2.82239 24.3526 3.65485C23.8781 4.48731 23.6715 5.44614 23.7611 6.40054L23.7383 6.37648C23.8057 7.17434 23.6985 7.97733 23.4241 8.72937C23.1498 9.48142 22.7147 10.1644 22.1497 10.7306C21.5846 11.2967 20.9029 11.7326 20.1523 12.0074C19.4015 12.2823 18.6001 12.3897 17.8037 12.3222L17.8265 12.3463C17.1497 12.278 16.4661 12.3612 15.8254 12.59C15.1846 12.8186 14.6026 13.1872 14.1214 13.6689C13.6402 14.1506 13.2719 14.7336 13.0431 15.3754C12.8144 16.0172 12.7308 16.7018 12.7984 17.38L12.7757 17.3572C12.8427 18.155 12.7351 18.9578 12.4606 19.7097C12.186 20.4614 11.7511 21.1443 11.1861 21.7104C10.621 22.2764 9.93953 22.7122 9.1891 22.9873C8.43867 23.2623 7.63738 23.3701 6.84112 23.3029L6.86388 23.3257C5.91127 23.2361 4.95424 23.443 4.12334 23.9184C3.29245 24.3938 2.62813 25.1143 2.22102 25.9818C1.81389 26.8494 1.68377 27.8215 1.84842 28.7658C2.01307 29.7101 2.46447 30.5806 3.14103 31.2584C3.8176 31.9363 4.68639 32.3885 5.62893 32.5534C6.57146 32.7183 7.54184 32.588 8.40771 32.1801C9.27357 31.7723 9.99278 31.1068 10.4672 30.2743C10.9417 29.4417 11.1483 28.483 11.0588 27.5285L11.0828 27.5513C11.0155 26.7535 11.123 25.9507 11.3975 25.1986C11.6718 24.4467 12.1069 23.7639 12.6719 23.1977C13.237 22.6316 13.9186 22.1957 14.6691 21.9209C15.4197 21.6459 16.221 21.5382 17.0174 21.6056Z"
        fill="#3649F9" />
    <path
        d="M8.54413 19.0634C9.02332 18.5805 9.39019 17.9976 9.61857 17.3563C9.84695 16.715 9.93121 16.031 9.86531 15.3533L9.88932 15.3761C9.82206 14.5781 9.92947 13.7749 10.2041 13.0228C10.4787 12.2706 10.9139 11.5876 11.4793 11.0214C12.0447 10.4553 12.7265 10.0196 13.4774 9.74475C14.2282 9.46993 15.0299 9.36265 15.8264 9.43039L15.8024 9.40759C16.7547 9.49697 17.7113 9.28989 18.5419 8.81458C19.3724 8.33929 20.0362 7.6189 20.4432 6.75168C20.8501 5.88444 20.98 4.91259 20.8154 3.96863C20.6508 3.02468 20.1995 2.15458 19.5232 1.47699C18.8469 0.799395 17.9784 0.347297 17.0362 0.182351C16.0941 0.0173934 15.124 0.147632 14.2585 0.555271C13.3928 0.962909 12.6738 1.62812 12.1994 2.4602C11.7249 3.29227 11.5182 4.25071 11.6075 5.20479L11.5847 5.18199C11.652 5.9798 11.5445 6.7827 11.2701 7.53464C10.9956 8.28659 10.5607 8.96946 9.99561 9.53561C9.43054 10.1018 8.74893 10.5375 7.9984 10.8124C7.24787 11.0874 6.44649 11.1951 5.65018 11.1277L5.67294 11.1505C4.89486 11.0806 4.11175 11.2087 3.39619 11.5227C2.68063 11.8367 2.05575 12.3266 1.57948 12.947C1.10322 13.5673 0.790962 14.2982 0.671639 15.0716C0.552328 15.8452 0.629816 16.6363 0.896922 17.3718C1.16403 18.1073 1.61213 18.7633 2.19968 19.2791C2.78723 19.795 3.49523 20.1539 4.25808 20.3226C5.02091 20.4912 5.81391 20.4642 6.56359 20.2442C7.31326 20.024 7.99534 19.6179 8.54665 19.0634H8.54413Z"
        fill="#3649F9" />
</svg>
